<?xml version="1.0" encoding="UTF-8" standalone="no"?>
<!-- Created with Inkscape (http://www.inkscape.org/) -->
<svg id="svg2" xmlns:rdf="http://www.w3.org/1999/02/22-rdf-syntax-ns#" xmlns="http://www.w3.org/2000/svg" height="22.852mm" width="23.242mm" version="1.1" xmlns:cc="http://creativecommons.org/ns#" xmlns:dc="http://purl.org/dc/elements/1.1/" viewBox="0 0 82.351893 80.970304">
 <metadata id="metadata7">
  <rdf:RDF>
   <cc:Work rdf:about="">
    <dc:format>image/svg+xml</dc:format>
    <dc:type rdf:resource="http://purl.org/dc/dcmitype/StillImage"/>
    <dc:title/>
   </cc:Work>
  </rdf:RDF>
 </metadata>
 <g id="layer1" transform="translate(-.20171 -976.24)">
  <flowRoot id="flowRoot3352" style="word-spacing:0px;letter-spacing:0px" font-weight="500" xml:space="preserve" font-size="40px" line-height="125%" font-family="&apos;Apple Chancery&apos;" fill="#000000"><flowRegion id="flowRegion3354"><rect id="rect3356" y="346.65" width="325.71" x="191.43" height="228.57"/></flowRegion><flowPara id="flowPara3358"/></flowRoot>
  <text id="text3360" style="word-spacing:0px;letter-spacing:0px" font-weight="500" xml:space="preserve" font-size="40px" line-height="125%" y="212.3622" x="148.57143" font-family="&apos;Apple Chancery&apos;" fill="#000000"><tspan id="tspan3362" x="148.57143" y="212.3622"/></text>
  <g id="g4319" transform="translate(-281.08 581.87)">
   <g id="g4336" fill="#004480" transform="translate(0 2.8571)">
    <g id="g4166" stroke-linejoin="round" stroke-opacity=".027950" fill-opacity=".15839" fill-rule="evenodd" stroke="#000" stroke-width="1px">
     <path id="path4178" d="m322.18 425.08 40.086-13.454v55.827l-40.086 3.6763z" points="362.27034,411.63065 362.27034,467.45756 322.18393,471.13386 322.18393,425.08429 "/>
     <path id="path4168" d="m283.04 413.11v54.755l39.14 3.2732v-46.05z" points="283.04443,467.86068 322.18393,471.13386 322.18393,425.08429 283.04443,413.10589 "/>
     <path id="path4170" d="m283.04 413.11 39.363-19.816 39.863 18.341-40.086 13.454z" points="322.40757,393.28953 362.27034,411.63065 322.18393,425.08429 283.04443,413.10589 "/>
     <path id="path4176" d="m283.04 467.86 39.363-5.415 39.863 5.0118-40.086 3.6763z" points="322.40757,462.44571 362.27034,467.45756 322.18393,471.13386 283.04443,467.86068 "/>
     <path id="path4174" d="m322.41 393.29v69.156l39.863 5.0118v-55.827z" points="322.40757,462.44571 362.27034,467.45756 362.27034,411.63065 322.40757,393.28953 "/>
     <path id="path4172" d="m283.04 413.11 39.363-19.816v69.156l-39.363 5.415z" points="322.40757,393.28953 322.40757,462.44571 283.04443,467.86068 283.04443,413.10589 "/>
    </g>
    <g>
     <text id="text3336" style="word-spacing:0px;letter-spacing:0px" xml:space="preserve" transform="scale(1.1578 .86372)" line-height="125%" font-size="27.27px" y="500.49155" x="251.80077" font-family="&apos;Gill Sans&apos;"><tspan id="tspan3338" x="251.80077" y="500.49155">q</tspan></text>
     <text id="text3340" style="word-spacing:0px;letter-spacing:0px" xml:space="preserve" transform="scale(.97420 1.0265)" line-height="342.00000763%" font-size="30.303px" y="421.2482" x="321.05701" font-family="&apos;Gill Sans&apos;"><tspan id="tspan3342" x="321.05701" y="421.2482">A</tspan></text>
     <text id="text3344" style="word-spacing:0px;letter-spacing:0px" font-weight="500" xml:space="preserve" font-size="40px" line-height="125%" y="463.07651" x="306.42856" font-family="&apos;Apple Chancery&apos;"><tspan id="tspan3346" font-weight="normal" font-size="40px" line-height="125%" y="463.07651" x="306.42856" font-family="&apos;Gill Sans&apos;" fill="#004480">M</tspan></text>
     <text id="text3348" style="word-spacing:0px;letter-spacing:0px" xml:space="preserve" transform="scale(1.0532 .94945)" line-height="125%" font-size="20.707px" y="470.67105" x="320.86578" font-family="&apos;Gill Sans&apos;"><tspan id="tspan3350" x="320.86578" y="470.67105">L</tspan></text>
    </g>
   </g>
  </g>
 </g>
</svg>
